<svg width="50" height="68" viewBox="0 0 50 68" fill="none" xmlns="http://www.w3.org/2000/svg">
<path d="M40.7399 60.6298L40.7399 38.9306C46.3594 35.4595 49.5631 30.3908 49.5631 24.8837C49.5631 11.3607 38.5617 0.360351 25.0398 0.36035C11.5168 0.36035 0.51647 11.3607 0.51647 24.8837L0.516469 36.6465C0.516469 40.2192 3.42188 43.1246 6.99457 43.1246C8.00083 43.1246 8.95148 42.8872 9.80161 42.4766C10.4999 45.3007 13.0471 47.402 16.084 47.402C17.3822 47.402 18.5895 47.0149 19.6032 46.3551C20.7335 48.2585 22.8027 49.5407 25.1735 49.5407C26.1027 49.5407 26.9839 49.3396 27.7837 48.9857L27.7837 60.6298C27.7837 64.2025 30.6892 67.1079 34.2608 67.1079C37.8335 67.1079 40.7399 64.2025 40.7399 60.6298ZM31.6516 60.6298L31.6516 28.3601C31.6516 27.2919 30.7854 26.4268 29.7182 26.4268C28.6499 26.4268 27.7837 27.2919 27.7837 28.3601L27.7837 43.0636C27.7837 44.5041 26.6117 45.675 25.1735 45.675C23.7331 45.675 22.5621 44.503 22.5621 43.0636C22.5621 43.0562 22.56 43.0497 22.56 43.0423L22.56 28.3601C22.56 27.2919 21.6938 26.4267 20.6266 26.4267C19.5594 26.4267 18.6932 27.2918 18.6932 28.3601L18.6932 40.925C18.6932 42.3654 17.5223 43.5363 16.084 43.5363C14.6436 43.5363 13.4727 42.3643 13.4727 40.925L13.4727 28.3601C13.4727 27.2918 12.6065 26.4267 11.5393 26.4267C10.4721 26.4267 9.60592 27.2918 9.60592 28.3601L9.60592 36.6476C9.60592 38.088 8.43391 39.2589 6.99457 39.2589C5.55523 39.2589 4.38322 38.0869 4.38322 36.6476L4.38323 24.8847C4.38323 13.4951 13.6502 4.22818 25.0398 4.22818C36.4283 4.22818 45.6953 13.4951 45.6953 24.8848C45.6953 28.3345 43.9202 31.6099 40.7389 34.2009L40.7389 28.3601C40.7389 27.2919 39.8727 26.4268 38.8044 26.4268C37.7372 26.4268 36.8711 27.2919 36.8711 28.3601L36.8711 60.6309C36.8711 62.0713 35.7001 63.2422 34.2597 63.2422C32.8214 63.2422 31.6516 62.0702 31.6516 60.6298Z" fill="black"/>
</svg>
